<svg width="1288.4523" height="683.90674" xmlns="http://www.w3.org/2000/svg">
 <metadata id="metadata8">image/svg+xml</metadata>
 <defs>
  <clipPath id="clipPath16">
   <path id="path18" d="m0,547.125l1030.761963,0l0,-547.125l-1030.761963,0l0,547.125z"/>
  </clipPath>
 </defs>
 <g>
  <title>background</title>
  <rect fill="none" id="canvas_background" height="402" width="582" y="-1" x="-1"/>
 </g>
 <g>
  <title>Layer 1</title>
  <path fill="#ffffff" fill-rule="nonzero" id="path3021" d="m885.949829,233.428436l70.55127,0l69.29248,162.03125l69.262451,-162.03125l70.083862,0l-117.012573,275.153748l-44.508728,0l-117.668762,-275.153748z"/>
  <path fill="#ffffff" fill-rule="nonzero" id="path3019" d="m748.516113,131.790939l68.976257,0l0,101.637497l40.9375,0l0,58.921265l-40.9375,0l0,216.232483l-68.976257,0l0,-216.232483l-35.086243,0l0,-58.921265l35.086243,0l0,-101.637497z"/>
  <path fill="#ffffff" fill-rule="nonzero" id="path3017" d="m679.101074,271.645935l-42.732483,42.706238c-17.148743,-17.322479 -33.333801,-25.566254 -47.092529,-25.566254c-7.76001,0 -14.082458,1.470001 -18.783752,5.184998c-4.047485,3.058777 -6.632507,7.4375 -6.632507,12.471252c0.33252,3.057526 1.952515,6.621246 4.702515,9.705017c2.585022,3.238739 9.712524,7.285004 20.713745,12.446259l25.090027,12.943726c26.705017,12.955017 44.834961,26.403748 54.553711,40.471252c9.86377,13.451263 14.558777,29.460022 14.558777,48.063751c0.491272,23.946259 -8.266235,44.683746 -26.404968,60.692505c-18.105042,16.186249 -41.898804,24.278778 -72.018799,24.278778c-39.806213,0 -72.024963,-15.521271 -96.303741,-46.611267l42.416229,-46.596252c8.265015,9.867493 17.646301,17.626251 28.496277,23.28125c10.828735,5.67749 20.231262,8.901245 28.473755,8.901245c9.86377,0 17.149963,-2.084991 22.815002,-6.762512c5.658752,-4.709991 8.267517,-9.422485 8.267517,-15.078735c0,-10.828766 -9.886292,-21.196259 -29.943787,-31.565002l-23.463745,-11.331238c-44.507507,-22.317505 -66.691254,-50.650024 -66.691254,-84.460022c0,-21.701233 8.243744,-40.462494 24.610016,-55.207489c16.816223,-15.703751 38.51001,-22.990005 64.40625,-22.990005c18.612488,-0.474991 35.277466,3.572495 50.831238,11.332504c15.528748,7.792511 28.813782,19.274994 40.132507,33.690002"/>
  <path fill="#ffffff" fill-rule="nonzero" id="path3015" d="m201.973602,233.428436l70.889984,0l71.546265,172.368744l78.64624,-172.368744l71.063751,0l-172.701233,374.852509l-71.212509,0l56.316238,-120.565002l-104.548737,-254.287506z"/>
  <path fill="#ffffff" fill-rule="nonzero" id="path3013" d="m168.617355,193.953445c-368.839996,255.720016 -105.019997,573.096237 523.44252,469.99498c-519.547501,69.26001 -844.865005,-174.619965 -523.44252,-469.99498"/>
  <path fill="#ffffff" fill-rule="nonzero" id="path22" d="m1119.822388,489.799683c368.857544,-255.707504 105.043701,-572.933769 -523.441284,-469.834993c519.397583,-69.442499 844.704956,174.619997 523.441284,469.834993"/>
 </g>
</svg>